<svg width="441" height="441" viewBox="0 0 441 441" fill="none" xmlns="http://www.w3.org/2000/svg">
<path d="M119.493 183.153C106.671 212.845 98.571 241.862 93.1745 265.488C70.2302 258.065 45.2609 263.462 14.2175 281.01C11.5177 282.358 7.46939 281.684 5.44394 278.984C3.4185 276.284 3.41826 272.236 6.11813 270.21C36.4879 243.892 70.2307 196.653 119.496 183.159L119.493 183.153Z" fill="black"/>
<path d="M258.512 321.504C245.016 370.767 198.451 404.507 171.461 434.882C168.761 437.582 165.387 437.582 162.688 435.556C159.988 433.53 159.314 430.156 160.662 426.782C178.209 395.739 183.606 370.769 176.184 347.825C199.802 343.1 228.824 335.003 258.519 321.507L258.512 321.504Z" fill="black"/>
<path d="M304.396 137.269C316.544 149.416 316.544 168.987 304.396 181.134C292.249 193.281 272.679 193.281 260.531 181.134C248.384 168.987 248.384 149.416 260.531 137.269C272.679 125.121 292.249 125.121 304.396 137.269V137.269Z" fill="black"/>
<path d="M286.851 36.7147C253.785 50.211 220.716 70.4583 192.371 98.8015C130.284 160.888 109.368 247.946 102.615 294.506C102.615 296.532 103.29 298.554 104.641 300.58L141.759 337.697C143.107 339.046 145.133 339.723 146.481 339.723H147.829C194.395 332.975 281.449 311.379 343.534 249.968C371.878 221.624 392.122 187.881 405.621 155.488C356.356 128.489 312.493 85.2977 286.843 36.7096L286.851 36.7147ZM313.844 190.576C296.296 208.123 267.956 207.446 251.082 190.576C233.535 173.029 233.535 145.361 251.082 127.814C268.629 110.267 296.296 110.267 313.844 127.814C331.391 144.688 331.391 173.032 313.844 190.576Z" fill="black"/>
<path d="M436.672 11.7454C436.672 15.7936 435.323 75.8548 410.353 141.992C364.462 117.7 323.97 77.2085 299.004 31.9951C365.814 6.35131 425.871 5 429.927 5C431.953 5 433.301 5.67419 434.649 7.02568C436.001 8.37405 436.675 9.72551 436.675 11.7481L436.672 11.7454Z" fill="black"/>
<path d="M111.396 330.269C124.892 343.765 124.892 366.035 111.396 380.208C99.2486 391.682 53.36 403.826 43.912 406.527C39.1896 407.875 34.464 403.153 35.8121 398.427C37.8378 388.979 49.9821 342.413 61.4559 330.943C75.6259 316.773 97.8957 316.098 111.395 330.269L111.396 330.269Z" fill="black"/>
</svg>
