<svg width="1122" height="1122" viewBox="0 0 1122 1122" fill="none" xmlns="http://www.w3.org/2000/svg">
<rect width="1122" height="1122" rx="561" fill="#3966A5"/>
<path d="M1122 0H0V1122H1122V0Z" fill="#9FD0F4"/>
<path d="M404.078 626.402L387.695 642.789C379.879 650.605 379.879 663.277 387.695 671.094L450.906 734.305C458.723 742.121 471.395 742.121 479.211 734.305L495.598 717.922L404.078 626.402Z" fill="#3966A5"/>
<path d="M885 237C681.359 261.988 492.855 463.254 492.855 463.254L492.754 463.152L366.793 589.117L532.883 755.207L658.848 629.246L658.746 629.145C658.746 629.145 860.012 440.641 885 237Z" fill="#C4C2C2"/>
<path d="M492.754 463.152C492.754 463.152 399.719 405.086 291.238 513.562L237 567.801L261.566 592.371C261.566 592.371 345.566 515.777 392.848 563.062L492.754 463.152Z" fill="#C72B2C"/>
<path d="M658.848 629.246C658.848 629.246 716.914 722.281 608.438 830.762L554.199 885L529.629 860.434C529.629 860.434 606.223 776.434 558.938 729.152L658.848 629.246Z" fill="#C72B2C"/>
<path d="M697.793 535.406C667.086 566.117 617.301 566.117 586.594 535.406C555.883 504.699 555.883 454.914 586.594 424.207C617.301 393.5 667.086 393.5 697.793 424.207C728.5 454.914 728.5 504.699 697.793 535.406Z" fill="#ECECEC"/>
<path d="M684.414 522.027C661.094 545.348 623.289 545.348 599.973 522.027C576.652 498.711 576.652 460.906 599.973 437.586C623.289 414.27 661.094 414.27 684.414 437.586C707.73 460.906 707.73 498.711 684.414 522.027Z" fill="#3966A5"/>
<path d="M593.074 695.016L426.984 528.926L445.391 510.52L611.48 676.609L593.074 695.016Z" fill="#ECECEC"/>
<path d="M450.906 734.305L387.695 671.094C387.695 671.094 291.383 702.562 296.16 825.84C419.437 830.617 450.906 734.305 450.906 734.305Z" fill="#F2CB30"/>
<path d="M440.453 723.848L419.301 702.699L398.152 681.547C398.152 681.547 333.695 702.605 336.895 785.105C419.395 788.305 440.453 723.848 440.453 723.848Z" fill="#D66D2E"/>
<path d="M798.645 456.578C839.242 392.348 875.328 315.82 885 237C806.18 246.672 729.652 282.758 665.422 323.352L798.645 456.578Z" fill="#C72B2C"/>
<path d="M658.848 629.246L658.746 629.145C658.746 629.145 696.105 594.141 740.625 538.031C570.957 639.984 450.586 630.551 393.078 615.398L532.883 755.207L658.848 629.246Z" fill="#B8B7B5"/>
<path d="M519.43 621.371L593.074 695.016L611.48 676.609L550.879 616.012C539.977 618.273 529.484 620.043 519.43 621.371Z" fill="#DBDAD8"/>
<path d="M683.918 326.879C683.918 326.879 791.883 255.199 871.492 250.508C871.492 250.508 772.832 283.816 701.562 344.523L683.918 326.879Z" fill="#CE3E3D"/>
<path d="M698.363 500.062C670.395 511.84 626.816 526.691 590.633 509.941C593.16 514.258 596.27 518.324 599.973 522.027C623.289 545.348 661.094 545.348 684.414 522.027C690.836 515.605 695.48 508.078 698.363 500.062Z" fill="#2D5585"/>
<path d="M450.906 734.305C458.723 742.121 471.395 742.121 479.211 734.305L495.598 717.922H495.594C495.566 717.918 444.402 714.031 383.621 665.168C384.59 667.312 385.934 669.328 387.695 671.094L450.906 734.305Z" fill="#2D5585"/>
<path d="M608.438 830.762C612.18 827.02 615.703 823.301 619.059 819.598C589.363 836.285 559.359 847.34 534.637 854.543C531.57 858.305 529.629 860.434 529.629 860.434L554.199 885L608.438 830.762Z" fill="#B8252B"/>
</svg>
